<svg width="470" height="348" viewBox="0 0 470 348" fill="none" xmlns="http://www.w3.org/2000/svg">
<g clip-path="url(#clip0)">
<path opacity="0.1" d="M273.073 48.7875C242.942 48.013 214.245 40.8155 186.843 32.9409C159.44 25.0662 132.298 16.3244 102.888 12.1506C83.9728 9.46539 62.3383 9.08511 47.1006 16.5934C32.4308 23.8094 27.6914 36.266 25.1448 47.86C23.2267 56.5647 22.1001 65.724 27.3516 73.8722C31.0016 79.5301 37.4728 84.2836 41.9515 89.7049C57.5337 108.561 46.5186 131.81 29.6375 150.221C21.723 158.856 12.5282 167.092 6.41542 176.289C0.302634 185.485 -2.52331 196.012 2.82596 205.394C8.12402 214.669 20.7546 221.667 34.4374 226.579C62.2266 236.554 94.96 239.406 126.902 241.025C197.588 244.605 268.646 243.051 339.518 241.489C365.747 240.913 392.089 240.334 417.89 237.315C432.22 235.65 447.011 233.002 457.416 226.616C470.619 218.509 473.892 204.782 465.042 194.616C450.2 177.564 409.175 173.325 398.788 155.025C393.08 144.953 398.942 133.734 407.243 124.389C425.046 104.35 454.883 86.7693 456.452 63.8597C457.532 48.129 443.188 32.3704 421.009 24.9271C397.764 17.1267 365.524 18.1052 348.382 31.0209C330.714 44.3354 299.68 49.4553 273.073 48.7875Z" fill="#00A7DA"/>
<g opacity="0.8">
<path opacity="0.8" d="M437.052 82.911C437.052 82.911 431.801 80.787 415.097 88.4205C398.392 96.054 396.307 95.0847 391.982 93.916C387.657 92.7474 385.245 92.4737 380.608 86.1017C380.608 86.1017 377.349 68.4464 374.174 65.6963C370.999 62.9462 357.563 67.2592 357.563 67.2592C357.563 67.2592 341.445 70.9507 338.354 49.4833C338.354 49.4833 340.533 33.3074 337.562 28.3406C337.562 28.3406 343.559 30.9144 353.447 26.7591C363.336 22.6039 371.25 31.239 371.25 31.239C371.25 31.239 373.746 37.6714 373.485 41.502C373.224 45.3327 374.803 46.7796 379.537 44.9246C379.537 44.9246 381.865 41.6412 378.574 36.2152C375.282 30.7892 372.95 26.7452 373.867 22.5297C374.784 18.3141 377.414 12.4754 385.874 9.5444C394.333 6.61345 405.827 6.06622 411.344 3.80307C416.861 1.53993 418.193 0.0234375 418.193 0.0234375C418.193 0.0234375 414.799 3.41352 422.797 17.7715C430.795 32.1295 425.697 38.367 425.697 38.367C425.697 38.367 421.442 48.4677 402.662 47.6422C402.662 47.6422 384.565 48.3007 394.43 55.9435C394.43 55.9435 400.748 54.6635 410.199 51.6723C419.65 48.681 426.461 61.0263 428.156 69.6151C429.85 78.2039 437.052 82.911 437.052 82.911Z" fill="#00A7DA"/>
<path opacity="0.8" d="M412.732 10.894L412.829 10.8662C413.556 13.607 405.469 24.6167 398.555 33.3724L398.476 33.3121C408.225 20.9622 413.309 12.9995 412.732 10.894Z" fill="#444053"/>
<path opacity="0.8" d="M398.616 33.1313L398.658 33.2426C393.136 40.2361 386.19 48.5838 380.631 54.7657C380.101 55.3547 379.574 55.9715 379.072 56.6207L378.909 56.4955C379.421 55.8602 379.947 55.2387 380.478 54.6405C386.036 48.4493 393.099 40.1202 398.616 33.1313Z" fill="#444053"/>
<path opacity="0.8" d="M379.044 56.3096L379.156 56.4951C369.039 69.0768 368.369 88.6104 368.345 88.782L366.213 86.3519C366.236 86.1571 368.857 68.9748 379.044 56.3096Z" fill="#444053"/>
<path opacity="0.8" d="M425.325 76.0892C425.325 76.0892 413.397 69.912 404.1 72.1288C394.803 74.3455 373.876 64.2912 373.876 64.2912C373.876 64.2912 364.989 60.6971 363.201 56.5975C363.201 56.5975 357.107 50.1744 356.757 46.8585C356.408 43.5427 350.458 35.1764 346.604 34.875" stroke="#444053" stroke-miterlimit="10"/>
<path opacity="0.8" d="M423.598 82.0348C423.598 82.0348 417.592 78.0048 418.29 73.3022" stroke="#444053" stroke-miterlimit="10"/>
<path opacity="0.8" d="M414.384 87.2425C414.384 87.2425 405.79 84.1353 404.929 71.9385" stroke="#444053" stroke-miterlimit="10"/>
<path opacity="0.8" d="M400.52 90.396C400.52 90.396 392.308 83.6112 395.036 71.7529" stroke="#444053" stroke-miterlimit="10"/>
<path opacity="0.8" d="M383.858 87.0803C383.858 87.0803 378.392 75.6579 383.257 68.2285" stroke="#444053" stroke-miterlimit="10"/>
<path opacity="0.8" d="M425.465 68.5581C425.465 68.5581 419.249 70.5244 420.586 73.78" stroke="#444053" stroke-miterlimit="10"/>
<path opacity="0.8" d="M417.964 57.3257C417.964 57.3257 409.65 59.9506 409.454 71.6697" stroke="#444053" stroke-miterlimit="10"/>
<path opacity="0.8" d="M406.372 54.6216C406.372 54.6216 398.807 63.9246 399.342 72.3789" stroke="#444053" stroke-miterlimit="10"/>
<path opacity="0.8" d="M393.122 58.2715C393.122 58.2715 385.604 65.4273 386.563 69.4017" stroke="#444053" stroke-miterlimit="10"/>
<path opacity="0.8" d="M388.588 55.7439C388.588 55.7439 381.539 57.0007 380.557 54.6958" stroke="#444053" stroke-miterlimit="10"/>
<path opacity="0.8" d="M379.43 47.2666C379.43 47.2666 382.992 51.9645 383.909 50.9117" stroke="#444053" stroke-miterlimit="10"/>
<path opacity="0.8" d="M414.729 44.2937C414.729 44.2937 396.963 45.5783 392.945 40.2451" stroke="#444053" stroke-miterlimit="10"/>
<path opacity="0.8" d="M375.692 23.5962C375.692 23.5962 384.03 41.4184 390.082 43.6909" stroke="#444053" stroke-miterlimit="10"/>
<path opacity="0.8" d="M384.444 15.105C384.444 15.105 389.565 31.4989 395.906 36.6187" stroke="#444053" stroke-miterlimit="10"/>
<path opacity="0.8" d="M422.206 30.7659C422.206 30.7659 408.705 36.5397 400.585 30.6963" stroke="#444053" stroke-width="0.75" stroke-miterlimit="10"/>
<path opacity="0.8" d="M396.474 11.6079C396.474 11.6079 399.561 23.6656 403.718 26.5734" stroke="#444053" stroke-width="0.75" stroke-miterlimit="10"/>
<path opacity="0.8" d="M420.167 17.252C420.167 17.252 412.573 20.1133 409.738 17.9198" stroke="#444053" stroke-width="0.75" stroke-miterlimit="10"/>
<path opacity="0.8" d="M372.926 51.2041C372.926 51.2041 372.926 61.7082 370.054 62.4549" stroke="#444053" stroke-miterlimit="10"/>
<path opacity="0.8" d="M349.453 64.8153C349.453 64.8153 360.859 65.7892 366.115 59.9272" stroke="#444053" stroke-miterlimit="10"/>
<path opacity="0.8" d="M369.984 38.7935C369.984 38.7935 367.228 49.4599 359.616 52.3167" stroke="#444053" stroke-miterlimit="10"/>
<path opacity="0.8" d="M342.614 53.5923C342.614 53.5923 350.687 56.3748 357.628 49.27" stroke="#444053" stroke-miterlimit="10"/>
<path opacity="0.8" d="M361.013 29.6343C361.013 29.6343 360.249 38.6822 355.31 42.9163" stroke="#444053" stroke-miterlimit="10"/>
<path opacity="0.8" d="M342.921 39.8049C342.921 39.8049 349.62 39.8467 351.189 37.6763" stroke="#444053" stroke-miterlimit="10"/>
</g>
<path opacity="0.1" d="M122.381 348C178.434 348 223.873 344.782 223.873 340.812C223.873 336.842 178.434 333.624 122.381 333.624C66.3291 333.624 20.8896 336.842 20.8896 340.812C20.8896 344.782 66.3291 348 122.381 348Z" fill="#00A7DA"/>
<path d="M181.177 301.675C182.573 299.176 184.245 296.82 185.595 294.288C186.829 291.969 187.792 289.511 188.905 287.127C190.809 283.046 193.156 279.188 195.293 275.218C196.689 272.616 198.039 269.783 197.769 266.842C197.513 264.06 195.874 261.648 195.241 258.958C192.662 247.916 186.456 237.778 182.671 227.098C181.703 224.39 180.762 221.663 179.552 219.047C177.224 214.015 173.965 209.494 170.706 205.009C169.532 203.296 168.224 201.677 166.796 200.168C165.627 199.004 164.314 197.979 163.253 196.717C161.065 194.12 160.04 190.382 157.303 188.37C157.256 188.49 157.205 188.606 157.154 188.727C155.194 183.741 148.62 180.453 144.807 176.321C142.588 173.798 140.545 171.125 138.695 168.321L130.394 156.37C128.964 154.311 127.507 152.196 126.93 149.743C126.222 146.784 126.879 143.631 126.18 140.672C125.734 138.891 124.864 137.243 123.643 135.867C123.722 135.844 123.806 135.812 123.89 135.793C125.473 135.371 127.149 135.297 128.718 134.921C132.139 134.11 135.114 131.93 138.522 131.058C140.263 130.595 142.121 130.502 143.699 129.667C144.467 129.209 145.072 128.525 145.431 127.709C145.79 126.892 145.884 125.985 145.701 125.113C144.598 119.293 147.68 113.394 147.158 107.49C147.019 105.858 146.6 104.267 146.33 102.648C145.701 98.892 145.818 95.0428 146.041 91.2307C147.104 89.5128 148.378 87.9345 149.835 86.5328C151.93 84.5201 154.43 82.8228 155.888 80.3045C157.159 78.0739 157.466 75.3794 157.145 72.8287C156.917 70.9737 156.283 69.0213 154.817 67.8943C153.35 66.7674 151.246 66.6839 149.472 67.2729C149.225 67.3518 148.983 67.4491 148.746 67.5512C148.005 67.1816 147.195 66.9663 146.368 66.9184C145.54 66.8706 144.711 66.9912 143.932 67.2729C142.163 67.8572 140.645 69.0213 139.221 70.2317C138.376 70.8913 137.636 71.6728 137.023 72.5505C136.125 73.9418 135.864 75.6577 135.524 77.2947C134.801 80.455 133.748 83.5311 132.382 86.4725C132.13 86.9919 131.45 87.9241 130.901 88.8145L129.905 88.6105C129.472 92.7425 125.999 95.7755 123.885 99.3465C122.856 101.081 122.135 102.978 121.208 104.772C120.151 106.726 118.971 108.611 117.675 110.416C116.418 112.271 115.159 114.109 113.899 115.93C112.32 118.322 110.61 120.626 108.778 122.831C107.069 122.692 105.361 122.567 103.657 122.539C100.797 122.498 97.94 122.752 95.1322 123.295C94.9686 122.311 94.8675 121.319 94.8296 120.322C94.8296 120.262 94.8296 120.202 94.8296 120.141C94.8296 119.9 94.8576 119.613 94.8901 119.302C97.3098 117.688 99.2792 115.489 100.614 112.911C101.949 110.333 102.606 107.459 102.524 104.56C102.442 101.66 101.623 98.8284 100.144 96.3295C98.6644 93.8306 96.5735 91.7461 94.0661 90.2707C94.1586 89.7494 94.2177 89.2227 94.243 88.6939C94.243 88.3832 94.243 88.0679 94.243 87.7664C94.243 87.6087 94.243 87.4511 94.2104 87.3027C94.1816 86.9899 94.1287 86.6798 94.0521 86.3751C94.0149 86.2267 93.973 86.0783 93.9218 85.9114C93.8227 85.6204 93.6932 85.3406 93.5354 85.0766C93.5256 85.0604 93.5147 85.0449 93.5028 85.0302C93.4423 84.9328 93.3817 84.8355 93.3119 84.7427C93.2421 84.65 93.2514 84.6685 93.2235 84.6314C93.1744 84.5636 93.1216 84.4985 93.0652 84.4366L92.9488 84.316C92.8976 84.2604 92.8464 84.2048 92.7905 84.1537L92.6601 84.0378L92.4972 83.894L92.3482 83.7827L92.1806 83.6575L92.0177 83.5509L91.85 83.4442C91.7942 83.4071 91.7337 83.3746 91.6731 83.3422L91.5009 83.2448L91.3147 83.152L91.1424 83.0685L90.9376 82.9804L90.77 82.9062L90.5465 82.8227L90.3882 82.7625L90.1461 82.679L90.0018 82.6326L89.7364 82.5491L89.6107 82.512L89.3221 82.4332L89.2103 82.4007L88.9077 82.3265L88.8193 82.3033L88.4841 82.2291H88.4282L87.9347 82.1225C85.8956 81.7051 83.844 81.3449 81.78 81.0419C80.0901 80.7915 78.3582 80.5782 76.6915 80.9538C74.3916 81.4639 72.4735 83.0129 70.3226 83.9729C67.7807 85.1137 64.9594 85.4152 62.2498 86.0412C59.5403 86.6673 56.7516 87.7386 55.0523 89.9507C53.7581 91.6388 53.2413 93.786 52.8549 95.8776C49.6332 113.333 53.1063 131.239 53.7627 148.983C54.0188 155.888 53.7068 163.271 49.7775 168.924L61.221 168.623C61.7703 168.623 62.3243 168.59 62.883 168.558C63.4417 168.525 64.0003 168.484 64.5497 168.419C66.001 168.283 67.4109 167.862 68.6978 167.18C69.2938 166.842 69.8378 166.421 70.3133 165.928C71.8683 164.333 72.697 162.102 73.4558 159.969C73.7119 159.25 73.968 158.522 74.1961 157.789C74.2892 157.483 74.3776 157.177 74.4568 156.862L74.494 156.713L74.6244 156.774C75.0899 157.646 75.616 158.499 76.1747 159.324C78.1719 162.255 80.7046 164.76 83.2186 167.25C88.214 172.189 93.3212 177.216 99.583 180.388C101.697 181.45 103.983 182.345 105.593 184.098C106.385 184.947 107.069 186.037 108.191 186.329C108.889 186.51 109.658 186.329 110.323 186.626C111.301 187.034 111.66 188.207 112.111 189.172C112.563 190.137 113.582 191.12 114.551 190.679C114.369 191.575 114.444 192.503 114.767 193.358C115.089 194.214 115.647 194.961 116.376 195.516C116.845 195.776 117.249 196.137 117.558 196.574C117.707 196.972 117.789 197.392 117.8 197.816C117.999 199.001 118.627 200.072 119.565 200.826C118.657 202.324 119.383 204.471 119.406 206.34C119.406 207.908 118.89 209.42 118.536 210.945C117.507 215.421 118.07 220.105 118.908 224.617C119.374 227.107 119.965 229.686 121.595 231.62C122.125 232.246 122.758 232.788 123.317 233.396C124.384 234.593 125.27 235.938 125.948 237.389C127.36 240.262 128.323 243.334 128.801 246.497C129.026 248.085 129.481 249.631 130.152 251.088C131.171 253.305 130.24 256.032 131.153 258.295C131.567 259.311 132.33 260.178 132.577 261.24C132.926 262.784 132.112 264.329 131.893 265.901C131.362 269.583 134.03 273.001 134.272 276.711C134.311 276.929 134.265 277.153 134.141 277.337C133.96 277.541 133.648 277.537 133.401 277.652C132.936 277.875 132.81 278.501 132.661 279.021C132.512 279.54 132.093 280.129 131.576 279.971C123.927 284.048 116.008 287.813 108.359 291.89L104.867 293.745L86.1935 303.683C85.9668 303.795 85.7763 303.969 85.6437 304.184C85.5112 304.399 85.442 304.646 85.444 304.898C85.444 305.121 85.4719 305.362 85.4905 305.571C84.1823 305.895 82.9253 306.285 82.0314 306.447C81.6636 306.517 81.2958 306.586 80.9327 306.665C81.021 306.524 81.0782 306.366 81.1003 306.201C81.1018 305.973 81.0186 305.752 80.8665 305.581C80.7144 305.409 80.5042 305.3 80.2763 305.274C79.8201 305.229 79.3598 305.289 78.9308 305.45C77.8634 305.741 76.7732 305.941 75.6719 306.048C74.3637 306.174 73.0322 306.169 71.7659 306.512C70.4995 306.855 69.2518 307.621 68.7397 308.831C68.4835 309.531 68.3696 310.275 68.4045 311.02C68.3762 313.887 68.7173 316.745 69.4194 319.525C69.4306 319.636 69.467 319.742 69.5259 319.836C69.5848 319.93 69.6647 320.009 69.7593 320.068C69.9223 320.133 70.1178 320.068 70.2807 320.142C70.4242 320.229 70.5316 320.363 70.5833 320.522C71.3655 322.294 71.547 324.27 71.7565 326.199C72.0669 329.059 72.4595 331.911 72.9344 334.755C73.2137 336.415 73.5583 338.15 74.643 339.43C75.8348 340.821 77.7203 341.438 79.5407 341.684C83.3815 342.198 87.2596 341.424 91.0493 340.631C91.7569 340.483 92.5158 340.302 92.9907 339.754C93.3379 339.318 93.5044 338.765 93.4562 338.21C93.3678 336.304 91.6266 334.964 90.0437 333.893L87.8835 332.404C87.6992 332.306 87.5532 332.15 87.4688 331.96C87.3843 331.77 87.3664 331.557 87.4179 331.356L87.5576 328.541H87.1386C87.6042 326.556 88.3537 324.65 89.8202 323.286C90.8305 322.359 92.148 321.71 93.2048 320.866C94.5607 321.904 96.2032 322.504 97.9116 322.586C100.705 318.839 104.639 316.288 108.573 313.775C111.768 311.764 115.071 309.928 118.466 308.274C121.216 306.92 124.009 305.651 126.846 304.467C130.85 302.788 134.928 301.29 139.011 299.829C141.735 298.856 144.481 297.896 146.991 296.458C153.509 292.706 158.113 285.216 157.233 277.717C156.125 268.257 158.495 258.397 158.336 248.872C158.29 246.089 158.187 243.307 157.34 240.64C157.537 240.779 157.723 240.934 157.894 241.104C159.589 242.68 159.999 245.185 161.619 246.984C162.88 248.399 164.798 249.303 165.562 251.028C166.144 252.35 166.06 254.135 167.275 254.896C167.62 255.114 168.029 255.207 168.374 255.42C168.786 255.712 169.133 256.087 169.393 256.519C170.683 258.351 172.019 260.313 172.159 262.548C172.219 263.434 172.136 264.459 172.787 265.057C172.974 265.228 173.211 265.354 173.309 265.585C173.514 266.049 172.974 266.541 172.881 267.056C172.746 267.77 173.453 268.312 173.891 268.911C174.256 269.41 174.453 270.011 174.453 270.629C174.453 271.246 174.256 271.848 173.891 272.347C170.073 277.286 169.384 283.941 166.046 289.223C164.892 291.046 163.607 292.771 162.489 294.617C159.053 300.284 157.317 306.795 155.632 313.209C156.352 314.457 157.327 315.541 158.495 316.39C157.864 318.55 156.777 320.55 155.306 322.257C154.93 322.674 154.579 323.112 154.254 323.569C153.98 323.225 153.623 322.957 153.215 322.79C152.603 325.453 152.291 328.175 152.284 330.906C152.284 332.705 152.531 334.76 153.997 335.799C154.583 336.166 155.227 336.431 155.902 336.582L159.095 337.51C159.657 337.724 160.267 337.784 160.86 337.681C161.237 337.575 161.572 337.343 161.959 337.269C162.378 337.225 162.803 337.281 163.197 337.431L165.958 338.233C166.891 338.481 167.803 338.802 168.686 339.193C169.473 339.569 170.199 340.056 170.972 340.473C172.257 341.12 173.591 341.666 174.962 342.106L179.72 343.738C181.045 344.262 182.431 344.62 183.844 344.805C184.822 344.888 185.814 344.805 186.777 344.972C187.513 345.097 188.225 345.361 188.966 345.435C190.194 345.472 191.402 345.114 192.411 344.415C192.805 344.193 193.145 343.888 193.407 343.52C194.105 342.435 193.505 341.002 192.825 339.907C191.563 337.876 189.985 335.975 187.904 334.806C187.061 334.342 186.149 333.999 185.278 333.573C182.802 332.367 180.935 330.354 178.593 328.977C178.294 328.765 177.931 328.663 177.566 328.687C177.2 328.712 176.854 328.861 176.586 329.111C174.64 327.854 172.536 326.625 171.465 324.58C170.988 323.593 170.674 322.536 170.534 321.45C171.628 321.71 172.732 321.914 173.844 322.094C175.655 315.101 177.634 307.982 181.177 301.675ZM136.451 103.887C136.357 104.411 136.255 104.93 136.143 105.45C135.212 109.804 133.881 114.683 130.836 117.925C129.834 118.875 128.671 119.64 127.4 120.183L127.06 120.35C129.253 114.516 132.745 109.109 136.451 103.887Z" fill="url(#paint0_linear)"/>
<path d="M140.957 78.0555C141.302 76.437 141.562 74.7396 142.461 73.3437C143.075 72.466 143.817 71.6845 144.663 71.0249C146.088 69.8238 147.61 68.669 149.384 68.0847C151.158 67.5003 153.243 67.5792 154.733 68.7015C156.223 69.8238 156.851 71.7576 157.084 73.6034C157.401 76.1402 157.084 78.8114 155.822 81.0235C154.379 83.5325 151.874 85.1974 149.77 87.2101C148.246 88.663 146.92 90.3096 145.827 92.1074C145.33 93.0444 144.727 93.9219 144.03 94.723C143.677 95.1215 143.234 95.4319 142.739 95.6292C142.243 95.8266 141.708 95.9053 141.176 95.8592C140.277 95.7154 139.547 95.094 138.848 94.5004C137.987 93.7491 135.668 92.4088 135.589 91.217C135.533 90.2523 137.344 88.0634 137.787 87.1591C139.163 84.2443 140.225 81.1928 140.957 78.0555Z" fill="#FBBEBE"/>
<path opacity="0.1" d="M140.957 78.0555C141.302 76.437 141.562 74.7396 142.461 73.3437C143.075 72.466 143.817 71.6845 144.663 71.0249C146.088 69.8238 147.61 68.669 149.384 68.0847C151.158 67.5003 153.243 67.5792 154.733 68.7015C156.223 69.8238 156.851 71.7576 157.084 73.6034C157.401 76.1402 157.084 78.8114 155.822 81.0235C154.379 83.5325 151.874 85.1974 149.77 87.2101C148.246 88.663 146.92 90.3096 145.827 92.1074C145.33 93.0444 144.727 93.9219 144.03 94.723C143.677 95.1215 143.234 95.4319 142.739 95.6292C142.243 95.8266 141.708 95.9053 141.176 95.8592C140.277 95.7154 139.547 95.094 138.848 94.5004C137.987 93.7491 135.668 92.4088 135.589 91.217C135.533 90.2523 137.344 88.0634 137.787 87.1591C139.163 84.2443 140.225 81.1928 140.957 78.0555Z" fill="black"/>
<path d="M92.0735 124.408C95.8036 123.42 99.6532 122.951 103.512 123.016C109.951 123.109 116.581 124.663 122.712 122.696C124.295 122.15 125.834 121.484 127.316 120.707C128.55 120.095 129.807 119.464 130.752 118.462C133.802 115.244 135.114 110.398 136.069 106.071C137.023 101.744 137.27 97.301 137.517 92.8814C139.104 93.6187 140.776 94.3469 142.535 94.1985C144.295 94.0501 146.05 92.7144 146.041 90.9521C145.78 95.0471 145.576 99.1931 146.269 103.237C146.539 104.842 146.958 106.423 147.103 108.046C147.624 113.908 144.537 119.765 145.641 125.549C145.823 126.416 145.728 127.319 145.369 128.13C145.01 128.941 144.405 129.619 143.639 130.07C142.056 130.919 140.194 131.026 138.452 131.461C135.04 132.329 132.06 134.49 128.634 135.297C127.037 135.672 125.375 135.761 123.801 136.164C121.539 136.758 119.486 138.047 117.181 138.455C115.454 138.761 113.675 138.552 111.93 138.701C110.412 138.826 108.922 139.225 107.4 139.262C103.675 139.355 100.151 137.254 97.6742 134.467C95.1974 131.679 93.6285 127.784 92.0735 124.408Z" fill="#00A7DA"/>
<path opacity="0.1" d="M92.0735 124.408C95.8036 123.42 99.6532 122.951 103.512 123.016C109.951 123.109 116.581 124.663 122.712 122.696C124.295 122.15 125.834 121.484 127.316 120.707C128.55 120.095 129.807 119.464 130.752 118.462C133.802 115.244 135.114 110.398 136.069 106.071C137.023 101.744 137.27 97.301 137.517 92.8814C139.104 93.6187 140.776 94.3469 142.535 94.1985C144.295 94.0501 146.05 92.7144 146.041 90.9521C145.78 95.0471 145.576 99.1931 146.269 103.237C146.539 104.842 146.958 106.423 147.103 108.046C147.624 113.908 144.537 119.765 145.641 125.549C145.823 126.416 145.728 127.319 145.369 128.13C145.01 128.941 144.405 129.619 143.639 130.07C142.056 130.919 140.194 131.026 138.452 131.461C135.04 132.329 132.06 134.49 128.634 135.297C127.037 135.672 125.375 135.761 123.801 136.164C121.539 136.758 119.486 138.047 117.181 138.455C115.454 138.761 113.675 138.552 111.93 138.701C110.412 138.826 108.922 139.225 107.4 139.262C103.675 139.355 100.151 137.254 97.6742 134.467C95.1974 131.679 93.6285 127.784 92.0735 124.408Z" fill="black"/>
<path d="M259.502 130.108C265.841 130.108 272.038 131.98 277.308 135.488C282.579 138.996 286.687 143.983 289.112 149.817C291.538 155.65 292.172 162.07 290.935 168.263C289.698 174.456 286.646 180.144 282.163 184.609C277.68 189.073 271.969 192.114 265.752 193.345C259.535 194.576 253.091 193.943 247.235 191.526C241.378 189.109 236.373 185.017 232.852 179.766C229.331 174.515 227.452 168.342 227.453 162.028C227.455 153.562 230.832 145.443 236.842 139.457C242.852 133.47 251.003 130.108 259.502 130.108ZM259.502 122.224C251.598 122.224 243.871 124.559 237.299 128.933C230.727 133.307 225.605 139.525 222.58 146.799C219.556 154.074 218.765 162.078 220.307 169.801C221.849 177.523 225.656 184.616 231.246 190.184C236.835 195.751 243.956 199.542 251.709 201.077C259.461 202.613 267.497 201.824 274.799 198.81C282.101 195.796 288.342 190.693 292.733 184.146C297.124 177.599 299.467 169.902 299.466 162.028C299.454 151.474 295.239 141.356 287.747 133.894C280.255 126.432 270.097 122.235 259.502 122.224Z" fill="#3F3D56"/>
<path d="M262.952 112.911H253.585V122.734H262.952V112.911Z" fill="#3F3D56"/>
<path d="M287.689 121.701L279.66 116.896L274.581 125.315L282.61 130.121L287.689 121.701Z" fill="#3F3D56"/>
<path d="M304.155 141.141L299.613 132.98L290.989 137.742L295.53 145.903L304.155 141.141Z" fill="#3F3D56"/>
<path d="M299.491 190.808L304.454 182.896L296.092 177.69L291.128 185.603L299.491 190.808Z" fill="#3F3D56"/>
<path d="M223.477 145.9L228.018 137.739L219.394 132.977L214.853 141.138L223.477 145.9Z" fill="#3F3D56"/>
<path d="M227.88 185.6L222.917 177.687L214.554 182.892L219.518 190.805L227.88 185.6Z" fill="#3F3D56"/>
<path d="M236.392 130.12L244.422 125.314L239.343 116.895L231.314 121.701L236.392 130.12Z" fill="#3F3D56"/>
<path d="M262.952 201.322H253.585V211.145H262.952V201.322Z" fill="#3F3D56"/>
<path d="M282.612 193.937L274.582 198.743L279.661 207.163L287.69 202.357L282.612 193.937Z" fill="#3F3D56"/>
<path d="M231.315 202.358L239.344 207.164L244.423 198.744L236.394 193.938L231.315 202.358Z" fill="#3F3D56"/>
<path d="M220.554 158.1H209.213V166.448H220.554V158.1Z" fill="#3F3D56"/>
<path d="M298.451 166.448H309.792V158.1H298.451V166.448Z" fill="#3F3D56"/>
<path d="M333.954 72.6432C340.293 72.6432 346.49 74.5157 351.76 78.0239C357.031 81.532 361.139 86.5183 363.564 92.3522C365.99 98.186 366.624 104.605 365.387 110.798C364.15 116.991 361.098 122.68 356.615 127.144C352.132 131.609 346.421 134.649 340.204 135.881C333.987 137.112 327.543 136.479 321.687 134.062C315.831 131.645 310.825 127.552 307.304 122.302C303.783 117.051 301.905 110.878 301.905 104.564C301.907 96.0974 305.284 87.9783 311.294 81.9922C317.304 76.0061 325.455 72.6432 333.954 72.6432ZM333.954 64.7593C326.05 64.7593 318.324 67.0942 311.751 71.4686C305.179 75.8431 300.057 82.0607 297.033 89.3351C294.008 96.6096 293.217 104.614 294.759 112.336C296.302 120.059 300.108 127.152 305.698 132.719C311.287 138.286 318.408 142.078 326.161 143.613C333.913 145.149 341.949 144.36 349.251 141.346C356.553 138.332 362.795 133.229 367.185 126.682C371.576 120.135 373.919 112.437 373.918 104.564C373.906 94.0099 369.691 83.8919 362.199 76.4296C354.707 68.9674 344.549 64.7703 333.954 64.7593Z" fill="#3F3D56"/>
<path d="M337.404 55.4517H328.037V65.2741H337.404V55.4517Z" fill="#3F3D56"/>
<path d="M362.144 64.234L354.115 59.4282L349.036 67.8477L357.065 72.6534L362.144 64.234Z" fill="#3F3D56"/>
<path d="M378.609 83.6751L374.068 75.5142L365.444 80.2762L369.985 88.4371L378.609 83.6751Z" fill="#3F3D56"/>
<path d="M373.941 133.345L378.905 125.432L370.543 120.227L365.579 128.14L373.941 133.345Z" fill="#3F3D56"/>
<path d="M297.926 88.4412L302.467 80.2803L293.843 75.5183L289.302 83.6792L297.926 88.4412Z" fill="#3F3D56"/>
<path d="M302.331 128.139L297.367 120.226L289.005 125.431L293.969 133.344L302.331 128.139Z" fill="#3F3D56"/>
<path d="M310.845 72.6544L318.874 67.8486L313.795 59.4292L305.766 64.2349L310.845 72.6544Z" fill="#3F3D56"/>
<path d="M337.404 143.858H328.037V153.68H337.404V143.858Z" fill="#3F3D56"/>
<path d="M357.064 136.475L349.035 141.28L354.113 149.7L362.142 144.894L357.064 136.475Z" fill="#3F3D56"/>
<path d="M305.764 144.892L313.793 149.697L318.872 141.278L310.843 136.472L305.764 144.892Z" fill="#3F3D56"/>
<path d="M295.001 100.636H283.66V108.983H295.001V100.636Z" fill="#3F3D56"/>
<path d="M372.908 108.983H384.249V100.636H372.908V108.983Z" fill="#3F3D56"/>
<path d="M185.032 70.1852C185.409 70.1852 185.786 70.1852 186.163 70.1852C194.563 70.4705 202.515 74.0317 208.304 80.1013C214.094 86.1709 217.258 94.2631 217.115 102.634C216.972 111.006 213.534 118.986 207.54 124.856C201.547 130.726 193.479 134.016 185.073 134.017C184.696 134.017 184.319 134.017 183.938 134.017C175.537 133.732 167.585 130.17 161.796 124.1C156.006 118.03 152.842 109.937 152.986 101.565C153.129 93.1936 156.568 85.2131 162.563 79.3434C168.557 73.4737 176.626 70.1847 185.032 70.1852ZM185.032 62.3013C174.55 62.3 164.488 66.4005 157.013 73.7193C149.538 81.0381 145.248 90.9893 145.069 101.429C144.889 111.868 148.834 121.959 156.053 129.529C163.272 137.098 173.188 141.54 183.663 141.896C184.128 141.896 184.594 141.919 185.06 141.919C195.54 141.919 205.602 137.818 213.076 130.499C220.55 123.18 224.839 113.229 225.017 102.79C225.196 92.351 221.251 82.2599 214.032 74.6909C206.813 67.1219 196.898 62.6808 186.424 62.3245C185.958 62.3245 185.492 62.3013 185.027 62.3013H185.032Z" fill="#3F3D56"/>
<path d="M190.205 53.1502L180.843 52.8262L180.501 62.6427L189.862 62.9667L190.205 53.1502Z" fill="#3F3D56"/>
<path d="M214.617 62.7837L206.76 57.7031L201.391 65.9418L209.248 71.0224L214.617 62.7837Z" fill="#3F3D56"/>
<path d="M230.398 82.7804L226.144 74.4673L217.359 78.9281L221.613 87.2412L230.398 82.7804Z" fill="#3F3D56"/>
<path d="M224.012 132.244L229.248 124.507L221.072 119.016L215.836 126.753L224.012 132.244Z" fill="#3F3D56"/>
<path d="M149.602 84.7426L154.425 76.7437L145.972 71.6862L141.149 79.6851L149.602 84.7426Z" fill="#3F3D56"/>
<path d="M151.965 125.34L147.282 117.223L138.703 122.134L143.386 130.252L151.965 125.34Z" fill="#3F3D56"/>
<path d="M163.071 69.4118L171.262 64.8867L166.48 56.2967L158.289 60.8218L163.071 69.4118Z" fill="#3F3D56"/>
<path d="M187.127 141.499L177.765 141.175L177.423 150.991L186.784 151.315L187.127 141.499Z" fill="#3F3D56"/>
<path d="M207.037 134.806L198.845 139.331L203.627 147.921L211.819 143.396L207.037 134.806Z" fill="#3F3D56"/>
<path d="M155.483 141.436L163.34 146.517L168.709 138.278L160.852 133.197L155.483 141.436Z" fill="#3F3D56"/>
<path d="M146.26 96.84L134.926 96.4478L134.635 104.79L145.969 105.183L146.26 96.84Z" fill="#3F3D56"/>
<path d="M223.83 107.865L235.164 108.257L235.455 99.9142L224.121 99.5219L223.83 107.865Z" fill="#3F3D56"/>
<path d="M81.8312 305.668C80.6778 305.808 79.5595 306.155 78.5304 306.693C77.1337 307.542 76.2724 309.04 75.6579 310.551C74.1169 314.345 73.7957 318.509 73.7305 322.609C73.6746 325.911 73.7864 329.292 74.9735 332.371C75.2992 333.346 75.8641 334.224 76.617 334.927C77.2793 335.445 78.0463 335.816 78.8656 336.012C80.6347 336.475 82.6878 336.475 84.1357 335.362C85.7466 334.106 86.1516 331.894 86.4915 329.885C86.957 327.177 87.6041 324.32 89.6247 322.433C91.1238 321.042 93.27 320.346 94.3594 318.621C95.6583 316.571 94.9739 313.895 94.1453 311.613C93.4236 309.638 92.3668 305.626 90.2904 304.615C88.214 303.604 83.9914 305.278 81.8312 305.668Z" fill="#FBBEBE"/>
<path d="M158.402 315.384C157.774 317.596 156.661 319.641 155.143 321.371C154.212 322.429 153.071 323.713 153.56 325.026C153.759 325.47 154.054 325.864 154.426 326.18C161.251 332.835 170.799 336.072 180.274 337.25C180.426 337.291 180.587 337.291 180.739 337.25C181.018 337.125 181.084 336.787 181.121 336.476C181.272 335.492 181.272 334.491 181.121 333.508C180.655 331.189 178.63 329.58 176.647 328.309C174.664 327.038 172.494 325.805 171.386 323.732C169.989 321.153 170.59 317.796 168.947 315.384C167.615 313.422 165.143 312.602 162.797 312.217C161.982 312.091 160.25 311.201 159.538 311.614C158.811 312.031 158.648 314.577 158.402 315.384Z" fill="#FBBEBE"/>
<path d="M80.9001 305.427C80.9016 305.198 80.8184 304.977 80.6663 304.806C80.5142 304.635 80.304 304.526 80.0761 304.499C79.6203 304.453 79.1599 304.512 78.7306 304.671C77.663 304.96 76.5728 305.158 75.4717 305.265C74.1635 305.39 72.8273 305.385 71.5563 305.728C70.2854 306.072 69.0423 306.827 68.5256 308.047C68.2742 308.744 68.1604 309.482 68.1904 310.222C68.1641 313.069 68.5052 315.907 69.2053 318.667C69.2176 318.778 69.255 318.884 69.3147 318.978C69.3744 319.072 69.4548 319.151 69.5498 319.21C69.7127 319.275 69.9083 319.21 70.0712 319.284C70.2143 319.369 70.3218 319.502 70.3738 319.66C71.1606 321.422 71.3422 323.37 71.5517 325.299C71.8621 328.14 72.2547 330.972 72.7296 333.795C73.0089 335.441 73.3534 337.171 74.4428 338.433C75.6346 339.824 77.5248 340.422 79.3451 340.668C83.1907 341.178 87.0734 340.408 90.8724 339.62C91.5967 339.548 92.278 339.243 92.8138 338.753C93.1608 338.319 93.3275 337.77 93.2793 337.218C93.1909 335.325 91.445 333.971 89.8621 332.932L87.6833 331.472C87.5313 331.388 87.4007 331.271 87.3015 331.128C87.1983 330.912 87.161 330.67 87.1945 330.433L87.3341 327.65C85.8869 327.673 84.4729 328.087 83.2431 328.847C82.0133 329.608 81.0136 330.686 80.3508 331.968C80.0481 332.566 79.7641 333.266 79.1356 333.498C78.3582 333.79 77.4922 333.137 77.2315 332.353C77.0502 331.543 77.0742 330.702 77.3013 329.904C78.577 323.096 78.279 316.098 79.0565 309.216C79.1046 308.444 79.3428 307.695 79.7502 307.036C80.1273 306.517 80.8303 306.062 80.9001 305.427Z" fill="#3F3D56"/>
<path d="M175.986 331.824C176.307 332.353 176.805 332.752 177.103 333.299C177.401 333.846 177.396 334.644 176.861 334.954C176.545 335.093 176.193 335.129 175.855 335.057C169.02 334.211 162.603 331.32 157.452 326.765C156.597 326.045 155.839 325.217 155.199 324.302C154.598 323.374 154.091 322.285 153.066 321.904C152.454 324.548 152.142 327.251 152.135 329.964C152.135 331.75 152.382 333.79 153.849 334.825C154.436 335.188 155.082 335.45 155.757 335.599L158.956 336.499C159.52 336.711 160.13 336.77 160.725 336.67C161.102 336.568 161.437 336.332 161.824 336.262C162.245 336.218 162.67 336.272 163.067 336.42L165.827 337.222C166.761 337.459 167.675 337.769 168.56 338.15C169.347 338.521 170.078 339.008 170.846 339.42C172.134 340.064 173.471 340.605 174.845 341.039L179.706 342.718C181.034 343.24 182.423 343.596 183.84 343.775C184.817 343.859 185.809 343.775 186.777 343.942C187.513 344.067 188.225 344.332 188.97 344.406C190.198 344.439 191.404 344.084 192.415 343.39C192.81 343.171 193.151 342.869 193.416 342.504C194.115 341.424 193.514 340 192.83 338.91C191.568 336.898 189.99 335.01 187.904 333.86C187.057 333.396 186.144 333.053 185.274 332.631C182.797 331.435 180.921 329.436 178.579 328.068C176.368 326.788 174.943 330.122 175.986 331.824Z" fill="#3F3D56"/>
<path d="M107.721 136.902C105.153 138.659 102.211 139.799 99.1267 140.232C97.5131 140.432 95.8874 140.518 94.2616 140.491C87.4823 140.483 80.7152 139.92 74.0284 138.808C76.6914 135.886 79.3824 132.779 80.388 128.948C80.8863 126.928 80.989 124.83 80.6906 122.771C80.2873 120.129 79.6549 117.527 78.8004 114.994C81.6525 115.146 84.5122 115.073 87.3527 114.776C88.9729 114.614 92.9394 113.143 94.3361 114.256C95.6443 115.291 94.6573 118.95 94.6341 120.638C94.6341 120.698 94.6341 120.758 94.6341 120.819C94.7073 123.381 95.2616 125.907 96.2682 128.267C98.3166 132.83 102.698 136.577 107.721 136.902Z" fill="#FBBEBE"/>
<path opacity="0.1" d="M94.6527 120.614C92.6123 121.942 90.3102 122.82 87.9012 123.187C85.4922 123.555 83.032 123.405 80.6859 122.748C80.2827 120.106 79.6503 117.504 78.7958 114.97C81.6479 115.123 84.5076 115.05 87.3481 114.752C88.9682 114.59 92.9348 113.12 94.3315 114.233C95.663 115.267 94.676 118.926 94.6527 120.614Z" fill="black"/>
<path d="M85.323 122.59C94.7336 122.59 102.362 114.99 102.362 105.616C102.362 96.2419 94.7336 88.6426 85.323 88.6426C75.9123 88.6426 68.2835 96.2419 68.2835 105.616C68.2835 114.99 75.9123 122.59 85.323 122.59Z" fill="#FBBEBE"/>
<path d="M157.62 191.505C157.629 192.875 157.279 194.224 156.606 195.419C155.932 196.613 154.958 197.612 153.779 198.318C152.461 199.006 151.05 199.499 149.589 199.778C141.795 201.633 133.811 203.159 125.808 202.705C124.076 202.607 122.316 202.403 120.761 201.647C119.206 200.891 117.879 199.477 117.647 197.77C117.636 197.348 117.553 196.931 117.4 196.537C117.092 196.102 116.687 195.743 116.217 195.489C115.498 194.938 114.948 194.197 114.63 193.35C114.312 192.503 114.24 191.584 114.42 190.698C113.447 191.129 112.432 190.155 111.976 189.195C111.52 188.235 111.161 187.076 110.184 186.673C109.518 186.39 108.75 186.557 108.047 186.376C106.925 186.088 106.241 184.984 105.449 184.159C103.834 182.438 101.543 181.548 99.4294 180.491C93.1583 177.342 88.0465 172.352 83.0417 167.445C80.5231 164.973 77.9858 162.483 75.9885 159.561C75.4252 158.74 74.9177 157.896 74.4382 157.029C72.9241 154.137 71.6112 151.145 70.5089 148.074C69.8757 146.432 69.2333 144.698 69.494 142.973C69.5173 142.815 69.5499 142.657 69.5871 142.509C69.9115 141.388 70.435 140.334 71.1328 139.397C72.8646 136.86 75.1366 134.458 78.1161 133.679C81.0957 132.9 84.0706 133.841 87.0968 134.481C88.1016 134.704 89.1204 134.859 90.1462 134.945C93.3539 135.172 96.529 134.314 99.6296 133.461L103.01 132.533C104.704 132.07 105.552 130.029 107.265 129.672C108.03 129.562 108.81 129.602 109.56 129.788C113.038 130.446 116.543 131.295 119.602 133.057C120.283 133.451 120.935 133.893 121.553 134.379C123.732 136.095 125.454 138.381 126.087 141.053C126.786 143.988 126.129 147.123 126.837 150.059C127.414 152.484 128.876 154.599 130.31 156.644L138.629 168.479C140.486 171.264 142.532 173.92 144.752 176.428C149.212 181.265 157.508 184.924 157.62 191.505Z" fill="#00A7DA"/>
<path d="M135.403 78.0555C135.748 76.437 136.004 74.7396 136.902 73.3437C137.516 72.466 138.259 71.6845 139.104 71.0249C140.534 69.8238 142.051 68.669 143.825 68.0847C145.599 67.5003 147.685 67.5792 149.174 68.7015C150.664 69.8238 151.293 71.7576 151.525 73.6034C151.842 76.1402 151.525 78.8114 150.264 81.0235C148.82 83.5325 146.316 85.1974 144.211 87.2101C142.688 88.6644 141.363 90.3108 140.268 92.1074C139.771 93.0444 139.168 93.9219 138.471 94.723C138.118 95.1215 137.676 95.4319 137.18 95.6292C136.684 95.8266 136.149 95.9053 135.617 95.8592C134.723 95.7154 133.988 95.094 133.289 94.5004C132.428 93.7491 130.105 92.4088 130.031 91.217C129.975 90.2523 131.786 88.0634 132.228 87.1591C133.603 84.2437 134.668 81.1924 135.403 78.0555Z" fill="#FBBEBE"/>
<path d="M195.288 274.67C193.146 278.608 190.8 282.443 188.891 286.496C187.778 288.866 186.815 291.305 185.576 293.61C184.226 296.124 182.564 298.461 181.153 300.947C177.601 307.212 175.623 314.28 173.793 321.241C168.675 320.477 163.751 318.746 159.286 316.14C158.984 315.963 158.695 315.778 158.416 315.578C157.222 314.726 156.223 313.631 155.487 312.365C157.177 305.997 158.914 299.523 162.354 293.898C163.476 292.043 164.761 290.35 165.916 288.541C169.263 283.301 169.952 276.688 173.774 271.781C174.14 271.286 174.337 270.688 174.337 270.074C174.337 269.46 174.14 268.862 173.774 268.368C173.332 267.797 172.629 267.255 172.759 266.55C172.857 266.035 173.397 265.571 173.188 265.089C173.09 264.857 172.853 264.732 172.666 264.565C172.015 263.967 172.098 262.946 172.043 262.07C171.898 259.849 170.562 257.896 169.249 256.083C168.987 255.653 168.64 255.281 168.23 254.988C167.885 254.78 167.475 254.687 167.131 254.474C165.911 253.713 166 251.941 165.413 250.629C164.649 248.899 162.727 248.018 161.465 246.613C159.859 244.827 159.449 242.337 157.741 240.774C157.568 240.605 157.383 240.45 157.187 240.31C158.034 242.931 158.118 245.727 158.178 248.486C158.341 257.943 155.967 267.732 157.079 277.128C157.955 284.581 153.355 292.02 146.814 295.744C144.3 297.172 141.553 298.127 138.825 299.096C134.733 300.539 130.654 302.027 126.641 303.697C123.804 304.866 121.011 306.126 118.261 307.477C114.862 309.12 111.553 310.944 108.349 312.94C104.411 315.435 100.472 317.971 97.6742 321.695C94.9693 321.621 92.4925 320.003 90.7793 317.916C89.066 315.829 87.9859 313.278 87.0036 310.792C86.133 308.636 85.2764 306.41 85.2112 304.087C85.2228 303.837 85.3051 303.596 85.4484 303.39C85.5917 303.185 85.7903 303.025 86.0212 302.927L104.723 293.054L108.219 291.199C115.878 287.15 123.811 283.408 131.469 279.364C131.986 279.517 132.4 278.932 132.554 278.436C132.707 277.94 132.815 277.3 133.299 277.077C133.541 276.961 133.857 276.966 134.039 276.762C134.157 276.579 134.204 276.36 134.169 276.145C133.923 272.435 131.25 269.063 131.786 265.404C132.014 263.846 132.819 262.311 132.47 260.767C132.223 259.705 131.46 258.847 131.045 257.84C130.114 255.591 131.045 252.883 130.04 250.68C129.372 249.232 128.917 247.695 128.69 246.117C128.208 242.974 127.244 239.924 125.831 237.073C125.151 235.632 124.265 234.296 123.201 233.108C122.637 232.505 122.004 231.967 121.469 231.341C119.844 229.421 119.244 226.861 118.783 224.385C117.945 219.9 117.386 215.249 118.41 210.806C118.764 209.29 119.304 207.787 119.281 206.233C119.257 204.179 118.35 201.781 119.784 200.297C120.377 199.766 121.099 199.397 121.879 199.226C125.175 198.247 128.606 197.802 132.018 197.371L147.638 195.335C149.426 195.099 151.255 194.871 152.834 193.986C154.952 192.821 156.358 190.665 157.219 188.42C159.961 190.415 160.985 194.129 163.174 196.703C164.24 197.96 165.557 198.976 166.726 200.13C168.155 201.629 169.464 203.237 170.641 204.94C173.9 209.396 177.159 213.885 179.487 218.885C180.702 221.482 181.642 224.19 182.611 226.885C186.424 237.491 192.639 247.559 195.218 258.522C195.851 261.203 197.495 263.624 197.751 266.364C198.039 269.272 196.689 272.083 195.288 274.67Z" fill="#3F3D56"/>
<path opacity="0.1" d="M113.489 186.584C113.107 187.289 112.908 188.078 112.912 188.88C113.261 187.164 115.631 186.213 115.784 184.516C115.854 183.732 115.71 183.769 115.226 184.182C114.49 184.817 114.169 185.912 113.489 186.584Z" fill="black"/>
<path opacity="0.1" d="M120.71 191.797C120.21 192.218 119.836 192.769 119.63 193.388C119.227 194.26 119.149 195.247 119.411 196.17C119.76 196.008 119.877 195.581 119.984 195.21C120.155 194.633 120.404 194.08 120.724 193.569C121.003 193.105 122.293 192.071 122.288 191.584C122.274 190.837 121.055 191.533 120.71 191.797Z" fill="black"/>
<path opacity="0.1" d="M121.543 134.346C120.448 135.285 119.241 136.086 117.949 136.73C114.574 138.432 110.836 139.332 107.437 140.983C105.76 141.839 104.132 142.785 102.558 143.816L92.4553 150.193C91.6436 150.656 90.8956 151.222 90.2299 151.876C89.0148 153.166 89.0194 155.434 87.9021 156.816C86.7848 158.198 84.8573 158.977 82.9998 159.069C81.139 159.08 79.2907 158.766 77.5388 158.142C76.4777 157.826 75.4362 157.448 74.4195 157.01C73.3563 156.561 72.3499 155.988 71.4213 155.304C69.6196 153.949 68.1624 151.979 67.8924 149.739C67.771 148.201 67.9756 146.656 68.493 145.203C68.7726 144.258 69.1324 143.338 69.5684 142.453C69.8167 141.95 70.1031 141.466 70.425 141.006C72.7528 137.732 76.8358 136.197 80.7884 135.441C82.8648 135.037 84.9784 134.792 87.078 134.439C88.0829 134.662 89.1017 134.817 90.1275 134.903C93.3352 135.13 96.5103 134.272 99.6109 133.419L102.991 132.491C104.685 132.028 105.533 129.987 107.246 129.63C108.011 129.52 108.791 129.56 109.541 129.746C113.019 130.404 116.525 131.253 119.583 133.015C120.268 133.412 120.923 133.857 121.543 134.346Z" fill="black"/>
<path d="M129.784 89.2969C129.351 93.4011 125.873 96.4156 123.732 99.9633C122.703 101.684 121.981 103.571 121.055 105.352C119.993 107.294 118.811 109.168 117.516 110.964L113.731 116.436C111.506 119.655 109.257 122.901 106.413 125.595C101.455 126.435 97.2971 130.103 92.595 131.884C88.8332 133.308 84.7317 133.502 80.7837 134.268C76.8358 135.033 72.7435 136.586 70.4251 139.833C69.5617 141.113 68.908 142.522 68.4883 144.006C67.968 145.457 67.7648 147.002 67.8924 148.537C68.1764 150.773 69.615 152.739 71.4167 154.103C73.2184 155.466 75.3739 156.273 77.5341 156.941C79.2867 157.563 81.1346 157.877 82.9951 157.868C84.8574 157.775 86.7475 157.061 87.9021 155.614C89.0567 154.167 89.0008 151.965 90.2299 150.675C90.8973 150.021 91.6469 149.455 92.4599 148.992L102.563 142.615C104.135 141.59 105.762 140.65 107.437 139.8C110.836 138.145 114.574 137.25 117.949 135.548C121.325 133.846 124.467 131.035 125.142 127.325C127.2 115.926 135.119 106.317 141.902 96.9025C141.679 96.8561 141.749 96.3506 141.665 96.1373C140.799 93.902 138.871 92.2185 136.702 91.1565C134.532 90.0945 132.112 89.7977 129.784 89.2969Z" fill="#00A7DA"/>
<path d="M94.0661 89.38C94.1921 88.1436 93.9474 86.8978 93.3631 85.7998C92.2411 83.9448 89.89 83.2909 87.7764 82.8549C85.731 82.4375 83.6764 82.0789 81.6124 81.779C79.9178 81.5332 78.1812 81.3153 76.5145 81.6955C74.1867 82.201 72.2919 83.7361 70.1364 84.6914C67.5898 85.823 64.7685 86.1198 62.0496 86.7459C59.3308 87.3719 56.5467 88.434 54.8428 90.6322C53.5485 92.3017 53.0318 94.435 52.6454 96.5126C49.419 113.853 52.8921 131.638 53.5532 149.261C53.8092 156.12 53.4973 163.452 49.5634 169.086L61.0208 168.785C63.9538 168.711 67.1056 168.558 69.4008 166.754C71.4306 165.167 72.3897 162.612 73.2603 160.191C73.9447 158.285 74.6337 156.342 74.7221 154.32C74.9037 150.179 72.5433 146.112 73.3255 142.035C73.8981 138.993 76.1188 136.535 78.4978 134.536C80.8768 132.537 83.5212 130.826 85.444 128.377C88.8798 124.051 89.5362 118.138 89.1079 112.642C88.8519 109.373 88.2652 106.103 88.5492 102.834C88.7634 100.39 89.5409 97.8668 91.1471 95.9608C92.9534 93.7996 93.9078 92.4455 94.0661 89.38Z" fill="#3F3D56"/>
<path opacity="0.1" d="M93.3631 85.8001C92.2598 83.9729 89.9692 83.3144 87.8695 82.8784C88.9857 83.2741 89.9408 84.0235 90.5884 85.0117C91.1749 86.1089 91.4196 87.3554 91.2914 88.5919C91.1331 91.6527 90.1787 93.0069 88.3537 95.1727C86.7476 97.0787 85.9701 99.5969 85.7559 102.046C85.4719 105.315 86.0585 108.585 86.3146 111.854C86.7429 117.35 86.0864 123.263 82.6553 127.589C80.7279 130.02 78.0835 131.763 75.7092 133.748C73.3348 135.733 71.1048 138.205 70.5321 141.247C69.764 145.324 72.1243 149.391 71.9288 153.532C71.8404 155.554 71.1467 157.497 70.4623 159.403C69.5964 161.824 68.6327 164.375 66.6028 165.961C64.275 167.765 61.1418 167.923 58.2228 167.997L50.1081 168.21C49.9265 168.507 49.7403 168.804 49.5401 169.087L60.9975 168.785C63.9305 168.711 67.0823 168.558 69.3776 166.754C71.4074 165.168 72.3664 162.612 73.237 160.192C73.9214 158.286 74.6104 156.342 74.6989 154.32C74.8805 150.179 72.5201 146.112 73.3022 142.035C73.8748 138.993 76.0956 136.535 78.4746 134.537C80.8536 132.538 83.4979 130.826 85.4207 128.378C88.8565 124.051 89.513 118.138 89.0846 112.642C88.8286 109.373 88.242 106.103 88.526 102.834C88.7401 100.39 89.5176 97.8671 91.1238 95.9611C92.9488 93.7999 93.9171 92.4458 94.0615 89.3803C94.1888 88.1444 93.9458 86.8986 93.3631 85.8001Z" fill="black"/>
<path opacity="0.1" d="M179.445 264.518L158.416 315.601C157.222 314.749 156.223 313.654 155.487 312.388C157.177 306.02 158.914 299.546 162.354 293.921C163.476 292.066 164.761 290.373 165.916 288.564C169.263 283.324 169.952 276.711 173.774 271.804C174.14 271.309 174.337 270.711 174.337 270.097C174.337 269.483 174.14 268.885 173.774 268.391C173.332 267.82 172.629 267.278 172.759 266.573C172.857 266.058 173.397 265.594 173.188 265.112C173.09 264.88 172.853 264.755 172.666 264.588C172.015 263.99 172.098 262.969 172.043 262.093C171.898 259.872 170.562 257.919 169.249 256.106C168.987 255.676 168.64 255.304 168.23 255.011C167.885 254.803 167.475 254.71 167.131 254.497C165.911 253.736 166 251.964 165.413 250.652C164.649 248.922 162.727 248.041 161.465 246.636C159.859 244.85 159.449 242.36 157.741 240.797L157.596 240.435L159.235 230.581L179.445 264.518Z" fill="black"/>
</g>
<defs>
<linearGradient id="paint0_linear" x1="123.778" y1="345.454" x2="123.778" y2="66.8741" gradientUnits="userSpaceOnUse">
<stop stop-color="#808080" stop-opacity="0.25"/>
<stop offset="0.54" stop-color="#808080" stop-opacity="0.12"/>
<stop offset="1" stop-color="#808080" stop-opacity="0.1"/>
</linearGradient>
<clipPath id="clip0">
<rect width="470" height="348" fill="white"/>
</clipPath>
</defs>
</svg>
