<svg width="522" height="437" viewBox="0 0 522 437" fill="none" xmlns="http://www.w3.org/2000/svg">
<path d="M191.515 433.718C172.329 427.5 160.23 417.827 151.76 401.936C147.958 395.2 147.785 392.609 147.785 362.727C147.785 333.191 147.439 330.255 143.982 323.691C139.315 314.882 124.623 300.373 116.154 296.055C112.697 294.155 109.413 292.427 108.894 291.736C106.82 289.491 89.0166 283.1 66.7192 276.364C53.4099 272.391 38.8907 267.209 34.2238 264.964C11.9265 253.564 0 230.073 0 196.909C0 177.736 2.76556 166.336 11.2351 148.891C49.0887 72.7182 195.664 0 311.99 0C347.597 0 371.45 5.87273 407.056 23.3182C487.085 62.5273 521.827 110.891 522 183.609C522 235.427 507.654 267.036 464.269 310.218C395.994 378.1 324.954 421.282 260.827 433.718C237.838 438.036 205.343 438.036 191.515 433.718Z" fill="#00A7DA" fill-opacity="0.05"/>
</svg>
